# xmcd CD database file
#
# Track frame offsets:
#	150
#	10386
#	22814
#	35887
#	46831
#	58932
#	71050
#	78915
#	88807
#	102024
#	114292
#	129304
#	141014
#	153717
#	166915
#	178286
#	192703
#	204699
#	216489
#	230736
#
# Disc length: 3252 seconds
#
# Revision: 2
# Processed by: cddbd v1.5.2PL0 Copyright (c) Steve Scherf et al.
# Submitted via: CDex 1.51
#
DISCID=260cb214
DTITLE=Dolly Parton and Country Ladies - Release Me
DYEAR=2003
DGENRE=Country
TTITLE0=Dolly Parton - Release Me
TTITLE1=Dolly Parton - Two Little Orphans
TTITLE2=Dolly Parton - Little Blossom
TTITLE3=Dolly Parton - It Wasn't God Who Made Honky Tonk Angels
TTITLE4=Dolly Parton - Makin' Believe
TTITLE5=Dolly Parton - Letter to Heaven
TTITLE6=Dolly Parton - Puppy Love
TTITLE7=Dolly Parton - A Girl Left Alone
TTITLE8=Lynn Anderson - Rose Garden
TTITLE9=Lynn Anderson - Stand By Your Man
TTITLE10=Lynn Anderson - Desperado
TTITLE11=Donna Fargo - Happiest Girl in the Whole USA
TTITLE12=Donna Fargo - Don't Be Angry
TTITLE13=Donna Fargo - Somebody Special
TTITLE14=Patsy Cline - The Heart You May Break May Be Yours
TTITLE15=Patsy Cline - Then You'll Know
TTITLE16=Patsy Cline - No More
TTITLE17=Patsy Cline - Walking After Midnight
TTITLE18=Barbara Mandrell - Try to Remember
TTITLE19=Barbara Mandrell - Please Release Me
EXTD=YEAR: 2003
EXTT0=
EXTT1=
EXTT2=
EXTT3=
EXTT4=
EXTT5=
EXTT6=
EXTT7=
EXTT8=
EXTT9=
EXTT10=
EXTT11=
EXTT12=
EXTT13=
EXTT14=
EXTT15=
EXTT16=
EXTT17=
EXTT18=
EXTT19=
PLAYORDER=
